{
	"asset":{
		"copyright":"Oxben <oxben@free.fr>",
		"generator":"Khronos glTF Blender I/O v5.1.20",
		"version":"2.0"
	},
	"scene":0,
	"scenes":[
		{
			"name":"Scene",
			"nodes":[
				0
			]
		}
	],
	"nodes":[
		{
			"mesh":0,
			"name":"SwapLogo",
			"translation":[
				-0.37528127431869507,
				0,
				-0.06166386604309082
			]
		}
	],
	"materials":[
		{
			"doubleSided":true,
			"name":"SwapLogo",
			"pbrMetallicRoughness":{
				"baseColorFactor":[
					0.011230605654418468,
					0.28957855701446533,
					0.3246867060661316,
					1
				],
				"metallicFactor":0,
				"roughnessFactor":0.5
			}
		},
		{
			"doubleSided":true,
			"name":"SwapLogoBorder",
			"pbrMetallicRoughness":{
				"baseColorFactor":[
					0.800000011920929,
					0.800000011920929,
					0.800000011920929,
					1
				],
				"roughnessFactor":0.3499999940395355
			}
		}
	],
	"meshes":[
		{
			"name":"SwapLogo",
			"primitives":[
				{
					"attributes":{
						"POSITION":0,
						"NORMAL":1,
						"TEXCOORD_0":2
					},
					"indices":3,
					"material":0
				},
				{
					"attributes":{
						"POSITION":4,
						"NORMAL":5,
						"TEXCOORD_0":6
					},
					"indices":7,
					"material":1
				}
			]
		}
	],
	"accessors":[
		{
			"bufferView":0,
			"componentType":5126,
			"count":616,
			"max":[
				1.3099766969680786,
				0,
				0.36456298828125
			],
			"min":[
				-0.569071888923645,
				-0.10000000149011612,
				-0.36455023288726807
			],
			"type":"VEC3"
		},
		{
			"bufferView":1,
			"componentType":5126,
			"count":616,
			"type":"VEC3"
		},
		{
			"bufferView":2,
			"componentType":5126,
			"count":616,
			"type":"VEC2"
		},
		{
			"bufferView":3,
			"componentType":5123,
			"count":1338,
			"type":"SCALAR"
		},
		{
			"bufferView":4,
			"componentType":5126,
			"count":1594,
			"max":[
				1.3640682697296143,
				0,
				0.4206112027168274
			],
			"min":[
				-0.5991802215576172,
				-0.10000000149011612,
				-0.4205993413925171
			],
			"type":"VEC3"
		},
		{
			"bufferView":5,
			"componentType":5126,
			"count":1594,
			"type":"VEC3"
		},
		{
			"bufferView":6,
			"componentType":5126,
			"count":1594,
			"type":"VEC2"
		},
		{
			"bufferView":7,
			"componentType":5123,
			"count":4050,
			"type":"SCALAR"
		}
	],
	"bufferViews":[
		{
			"buffer":0,
			"byteLength":7392,
			"byteOffset":0,
			"target":34962
		},
		{
			"buffer":0,
			"byteLength":7392,
			"byteOffset":7392,
			"target":34962
		},
		{
			"buffer":0,
			"byteLength":4928,
			"byteOffset":14784,
			"target":34962
		},
		{
			"buffer":0,
			"byteLength":2676,
			"byteOffset":19712,
			"target":34963
		},
		{
			"buffer":0,
			"byteLength":19128,
			"byteOffset":22388,
			"target":34962
		},
		{
			"buffer":0,
			"byteLength":19128,
			"byteOffset":41516,
			"target":34962
		},
		{
			"buffer":0,
			"byteLength":12752,
			"byteOffset":60644,
			"target":34962
		},
		{
			"buffer":0,
			"byteLength":8100,
			"byteOffset":73396,
			"target":34963
		}
	],
	"buffers":[
		{
			"byteLength":81496,
			"uri":"swap_logo.bin"
		}
	]
}
