{
	"asset":{
		"copyright":"oxben@free.fr",
		"generator":"Khronos glTF Blender I/O v5.1.20",
		"version":"2.0"
	},
	"scene":0,
	"scenes":[
		{
			"name":"Scene",
			"nodes":[
				0
			]
		}
	],
	"nodes":[
		{
			"mesh":0,
			"name":"BackgroundPlate"
		}
	],
	"materials":[
		{
			"doubleSided":true,
			"name":"metal_sheet",
			"pbrMetallicRoughness":{
				"baseColorTexture":{
					"index":0
				},
				"metallicRoughnessTexture":{
					"index":1
				}
			}
		}
	],
	"meshes":[
		{
			"name":"BackgroundPlate",
			"primitives":[
				{
					"attributes":{
						"POSITION":0,
						"NORMAL":1,
						"TEXCOORD_0":2
					},
					"indices":3,
					"material":0
				}
			]
		}
	],
	"textures":[
		{
			"sampler":0,
			"source":0
		},
		{
			"sampler":0,
			"source":1
		}
	],
	"images":[
		{
			"mimeType":"image/jpeg",
			"name":"metal_sheet",
			"uri":"../textures/metal_sheet.jpg"
		},
		{
			"mimeType":"image/png",
			"name":"metal_sheet",
			"uri":"../textures/metal_sheet.png"
		}
	],
	"accessors":[
		{
			"bufferView":0,
			"componentType":5126,
			"count":5408,
			"max":[
				1.152760624885559,
				0,
				0.6668403744697571
			],
			"min":[
				-1.1752605438232422,
				-0.05000000074505806,
				-0.6668403744697571
			],
			"type":"VEC3"
		},
		{
			"bufferView":1,
			"componentType":5126,
			"count":5408,
			"type":"VEC3"
		},
		{
			"bufferView":2,
			"componentType":5126,
			"count":5408,
			"type":"VEC2"
		},
		{
			"bufferView":3,
			"componentType":5123,
			"count":26520,
			"type":"SCALAR"
		}
	],
	"bufferViews":[
		{
			"buffer":0,
			"byteLength":64896,
			"byteOffset":0,
			"target":34962
		},
		{
			"buffer":0,
			"byteLength":64896,
			"byteOffset":64896,
			"target":34962
		},
		{
			"buffer":0,
			"byteLength":43264,
			"byteOffset":129792,
			"target":34962
		},
		{
			"buffer":0,
			"byteLength":53040,
			"byteOffset":173056,
			"target":34963
		}
	],
	"samplers":[
		{
			"magFilter":9729,
			"minFilter":9987
		}
	],
	"buffers":[
		{
			"byteLength":226096,
			"uri":"background_plate.bin"
		}
	]
}
