{
	"asset":{
		"copyright":"oxben@free.fr",
		"generator":"Khronos glTF Blender I/O v5.1.20",
		"version":"2.0"
	},
	"scene":0,
	"scenes":[
		{
			"name":"Scene",
			"nodes":[
				0
			]
		}
	],
	"nodes":[
		{
			"mesh":0,
			"name":"HighlightSquareReserve",
			"translation":[
				0.04999999701976776,
				0.009999999776482582,
				0
			]
		}
	],
	"materials":[
		{
			"doubleSided":true,
			"emissiveFactor":[
				0.5000120401382446,
				0.225389301776886,
				0.0003034516121260822
			],
			"name":"Highlight",
			"pbrMetallicRoughness":{
				"baseColorFactor":[
					1,
					0.45156705379486084,
					0.0006600958877243102,
					1
				],
				"metallicFactor":0,
				"roughnessFactor":0.4000000059604645
			}
		}
	],
	"meshes":[
		{
			"name":"TileSquareBigMesh.004",
			"primitives":[
				{
					"attributes":{
						"POSITION":0,
						"NORMAL":1,
						"TEXCOORD_0":2
					},
					"indices":3,
					"material":0
				}
			]
		}
	],
	"accessors":[
		{
			"bufferView":0,
			"componentType":5126,
			"count":52,
			"max":[
				2.2351741790771484e-08,
				0.003164115361869335,
				0.050000011920928955
			],
			"min":[
				-0.10000000894069672,
				-0.009999999776482582,
				-0.050000011920928955
			],
			"type":"VEC3"
		},
		{
			"bufferView":1,
			"componentType":5126,
			"count":52,
			"type":"VEC3"
		},
		{
			"bufferView":2,
			"componentType":5126,
			"count":52,
			"type":"VEC2"
		},
		{
			"bufferView":3,
			"componentType":5123,
			"count":144,
			"type":"SCALAR"
		}
	],
	"bufferViews":[
		{
			"buffer":0,
			"byteLength":624,
			"byteOffset":0,
			"target":34962
		},
		{
			"buffer":0,
			"byteLength":624,
			"byteOffset":624,
			"target":34962
		},
		{
			"buffer":0,
			"byteLength":416,
			"byteOffset":1248,
			"target":34962
		},
		{
			"buffer":0,
			"byteLength":288,
			"byteOffset":1664,
			"target":34963
		}
	],
	"buffers":[
		{
			"byteLength":1952,
			"uri":"highlight_square_reserve.bin"
		}
	]
}
